<svg id="svg" version="1.1" xmlns="http://www.w3.org/2000/svg" xmlns:xlink="http://www.w3.org/1999/xlink" width="400" height="400" viewBox="0, 0, 400,400"><g id="svgg"><path id="path0" d="M297.070 97.299 C 298.574 98.668,301.588 101.506,303.768 103.605 C 305.948 105.704,307.876 107.422,308.053 107.422 C 308.565 107.422,303.671 102.589,299.609 99.082 C 294.941 95.051,293.459 94.010,297.070 97.299 M228.542 116.823 C 228.283 118.139,228.147 119.293,228.240 119.386 C 228.333 119.479,228.621 118.478,228.880 117.161 C 229.139 115.845,229.275 114.692,229.182 114.599 C 229.089 114.505,228.801 115.506,228.542 116.823 M226.951 124.682 C 226.691 126.253,226.214 128.594,225.889 129.883 C 224.978 133.506,224.919 134.375,225.732 132.192 C 226.461 130.234,227.902 122.303,227.586 121.987 C 227.497 121.898,227.211 123.110,226.951 124.682 M273.185 132.099 C 272.254 132.550,270.904 135.185,271.187 136.001 C 271.286 136.288,271.492 135.966,271.645 135.285 C 272.578 131.131,277.753 130.787,279.461 134.766 C 279.783 135.518,280.054 135.896,280.063 135.606 C 280.148 132.685,276.168 130.656,273.185 132.099 M300.059 132.555 C 299.216 133.451,298.411 135.554,298.465 136.716 C 298.480 137.040,298.744 136.485,299.053 135.482 C 299.387 134.397,300.100 133.251,300.813 132.650 C 301.474 132.094,301.767 131.641,301.465 131.641 C 301.164 131.641,300.531 132.052,300.059 132.555 M305.089 132.301 C 306.185 133.050,306.640 133.679,307.295 135.352 C 307.550 136.006,307.766 136.233,307.783 135.865 C 307.859 134.185,306.015 131.641,304.722 131.641 C 304.328 131.641,304.454 131.867,305.089 132.301 M325.781 133.670 C 325.781 134.522,330.794 145.168,330.840 144.414 C 330.860 144.086,326.267 133.949,325.959 133.641 C 325.861 133.543,325.781 133.557,325.781 133.670 M224.436 135.764 C 224.289 136.548,224.246 137.267,224.342 137.363 C 224.437 137.458,224.636 136.895,224.783 136.111 C 224.930 135.327,224.972 134.608,224.877 134.512 C 224.781 134.417,224.583 134.980,224.436 135.764 M307.903 137.891 C 307.903 138.643,307.984 138.950,308.082 138.574 C 308.180 138.198,308.180 137.583,308.082 137.207 C 307.984 136.831,307.903 137.139,307.903 137.891 M298.200 143.359 C 298.200 146.260,298.261 147.446,298.337 145.996 C 298.412 144.546,298.412 142.173,298.337 140.723 C 298.261 139.272,298.200 140.459,298.200 143.359 M270.794 149.219 C 270.794 149.971,270.874 150.278,270.972 149.902 C 271.071 149.526,271.071 148.911,270.972 148.535 C 270.874 148.159,270.794 148.467,270.794 149.219 M307.871 148.978 C 307.519 155.748,300.682 157.581,299.011 151.354 C 298.692 150.165,298.483 149.792,298.472 150.391 C 298.400 154.392,302.997 157.023,305.972 154.683 C 307.131 153.771,308.332 150.519,308.094 148.938 L 307.930 147.852 307.871 148.978 M271.111 151.308 C 271.008 155.629,277.873 157.255,279.525 153.301 C 280.352 151.324,280.176 150.723,279.322 152.605 C 277.646 156.295,273.055 156.021,271.682 152.148 C 271.377 151.289,271.120 150.911,271.111 151.308 M193.692 153.049 C 194.344 153.501,190.395 154.072,189.240 153.692 C 188.600 153.483,188.572 153.516,189.063 153.897 C 189.536 154.265,189.409 154.323,188.400 154.200 C 187.661 154.110,187.246 154.202,187.384 154.425 C 187.526 154.655,187.177 154.699,186.484 154.537 C 185.603 154.332,185.481 154.369,185.938 154.706 C 186.406 155.052,186.310 155.105,185.461 154.970 C 184.807 154.865,184.493 154.952,184.643 155.196 C 184.793 155.439,184.562 155.506,184.045 155.371 C 183.505 155.230,183.294 155.300,183.459 155.567 C 183.624 155.833,183.413 155.903,182.873 155.762 C 182.409 155.641,182.129 155.701,182.249 155.896 C 182.450 156.220,181.794 156.400,180.571 156.356 C 180.304 156.346,180.183 156.494,180.301 156.685 C 180.497 157.002,179.834 157.181,178.617 157.137 C 178.351 157.127,178.248 157.305,178.389 157.532 C 178.549 157.792,178.395 157.850,177.973 157.688 C 177.522 157.515,177.394 157.578,177.583 157.883 C 177.771 158.188,177.644 158.252,177.192 158.079 C 176.741 157.905,176.613 157.969,176.802 158.274 C 176.990 158.579,176.863 158.643,176.411 158.469 C 175.959 158.296,175.832 158.360,176.020 158.665 C 176.209 158.970,176.081 159.033,175.630 158.860 C 175.178 158.687,175.051 158.750,175.239 159.055 C 175.428 159.360,175.300 159.424,174.848 159.251 C 174.450 159.098,174.275 159.150,174.417 159.379 C 174.645 159.749,174.068 159.946,173.242 159.779 C 173.027 159.736,172.982 159.831,173.142 159.991 C 173.557 160.406,171.964 161.429,171.423 161.095 C 171.145 160.923,171.079 160.989,171.252 161.268 C 171.405 161.516,171.344 161.741,171.117 161.768 C 170.889 161.794,170.542 161.838,170.345 161.865 C 170.148 161.892,169.840 162.074,169.661 162.270 C 169.470 162.479,169.577 162.507,169.922 162.338 C 170.244 162.181,170.174 162.323,169.767 162.654 C 169.359 162.985,168.848 163.147,168.632 163.013 C 168.415 162.879,168.358 162.964,168.505 163.201 C 168.749 163.596,167.942 164.265,166.992 164.454 C 166.777 164.496,166.642 164.680,166.692 164.861 C 166.742 165.043,166.258 165.565,165.618 166.021 C 164.977 166.477,164.453 166.713,164.453 166.545 C 164.453 166.378,163.582 167.098,162.518 168.147 C 161.453 169.195,160.645 170.156,160.723 170.281 C 160.800 170.406,160.421 171.035,159.881 171.680 C 159.341 172.324,159.033 172.605,159.197 172.303 C 159.397 171.936,159.344 171.848,159.038 172.037 C 158.787 172.192,158.658 172.444,158.752 172.597 C 158.846 172.749,158.570 173.308,158.139 173.839 C 157.707 174.370,157.485 174.541,157.646 174.219 C 157.818 173.874,157.791 173.767,157.582 173.958 C 157.387 174.137,157.205 174.445,157.178 174.642 C 157.151 174.839,157.107 175.186,157.080 175.414 C 157.053 175.641,156.851 175.716,156.631 175.580 C 156.411 175.444,156.256 175.477,156.287 175.655 C 156.418 176.412,156.224 176.983,155.903 176.785 C 155.713 176.667,155.581 176.877,155.611 177.250 C 155.640 177.624,155.451 177.888,155.190 177.837 C 154.897 177.779,154.811 177.991,154.963 178.389 C 155.143 178.857,155.068 178.946,154.694 178.715 C 154.389 178.526,154.271 178.548,154.406 178.767 C 154.694 179.232,152.121 184.413,151.775 184.066 C 151.635 183.927,151.648 184.144,151.804 184.549 C 151.989 185.031,151.941 185.195,151.665 185.024 C 151.393 184.856,151.323 185.062,151.465 185.607 C 151.604 186.139,151.535 186.357,151.278 186.198 C 151.053 186.059,150.877 186.164,150.887 186.430 C 150.937 187.818,150.742 188.694,150.427 188.499 C 150.232 188.379,150.172 188.659,150.293 189.123 C 150.428 189.640,150.361 189.871,150.118 189.721 C 149.873 189.570,149.797 189.866,149.918 190.500 C 150.037 191.125,149.962 191.429,149.722 191.281 C 149.483 191.133,149.407 191.436,149.527 192.062 C 149.642 192.664,149.568 192.989,149.346 192.852 C 149.122 192.714,149.041 193.110,149.147 193.826 C 149.247 194.510,149.167 194.936,148.962 194.809 C 148.757 194.683,148.661 195.208,148.740 196.023 C 148.818 196.835,148.740 197.264,148.560 197.010 C 148.385 196.762,148.242 199.777,148.242 203.711 C 148.242 207.645,148.387 210.660,148.565 210.412 C 148.743 210.162,148.806 210.813,148.705 211.869 C 148.579 213.175,148.642 213.606,148.903 213.236 C 149.164 212.864,149.216 213.184,149.067 214.258 C 148.906 215.419,148.956 215.670,149.263 215.234 C 149.574 214.793,149.620 214.966,149.453 215.937 C 149.296 216.848,149.362 217.145,149.677 216.951 C 149.980 216.763,150.052 216.946,149.903 217.518 C 149.763 218.052,149.833 218.268,150.093 218.107 C 150.357 217.944,150.434 218.219,150.308 218.875 C 150.187 219.509,150.263 219.805,150.509 219.654 C 150.751 219.504,150.819 219.735,150.684 220.252 C 150.543 220.792,150.613 221.003,150.879 220.838 C 151.146 220.673,151.216 220.884,151.075 221.424 C 150.932 221.969,151.003 222.175,151.275 222.007 C 151.543 221.841,151.602 221.989,151.438 222.417 C 151.266 222.865,151.329 222.996,151.629 222.811 C 151.933 222.623,152.006 222.804,151.856 223.377 C 151.713 223.922,151.784 224.128,152.056 223.960 C 152.325 223.794,152.384 223.942,152.219 224.370 C 152.078 224.739,152.117 224.945,152.307 224.827 C 152.704 224.582,153.225 225.695,152.933 226.166 C 152.826 226.339,153.020 226.588,153.363 226.720 C 153.730 226.861,153.892 227.208,153.756 227.563 C 153.605 227.956,153.682 228.068,153.977 227.886 C 154.282 227.697,154.346 227.825,154.172 228.277 C 154.031 228.646,154.076 228.848,154.273 228.726 C 154.651 228.492,155.311 229.997,155.123 230.664 C 155.062 230.879,155.146 230.921,155.309 230.759 C 155.692 230.375,157.061 232.448,156.753 232.946 C 156.625 233.154,156.723 233.198,156.971 233.045 C 157.380 232.792,157.603 233.279,157.458 234.111 C 157.428 234.288,157.574 234.327,157.783 234.198 C 158.120 233.989,159.267 235.544,159.018 235.872 C 158.964 235.944,159.050 236.120,159.210 236.263 C 159.370 236.406,159.369 236.260,159.208 235.938 C 159.048 235.615,159.270 235.786,159.701 236.317 C 160.133 236.848,160.417 237.394,160.333 237.530 C 160.249 237.666,160.614 238.185,161.145 238.683 C 161.675 239.182,162.109 239.438,162.109 239.253 C 162.109 239.068,162.630 239.416,163.267 240.026 C 163.904 240.636,164.346 241.264,164.248 241.422 C 164.151 241.579,164.333 241.926,164.653 242.191 C 164.973 242.457,165.234 242.554,165.234 242.408 C 165.234 242.263,165.630 242.420,166.113 242.759 C 166.597 243.097,166.992 243.547,166.992 243.758 C 166.992 243.968,167.080 244.111,167.188 244.075 C 167.695 243.903,169.131 245.011,168.896 245.392 C 168.749 245.630,168.806 245.715,169.023 245.581 C 169.239 245.447,169.750 245.609,170.157 245.940 C 170.565 246.271,170.635 246.413,170.313 246.255 C 169.968 246.087,169.861 246.115,170.052 246.324 C 170.231 246.520,170.539 246.702,170.736 246.729 C 170.933 246.755,171.280 246.799,171.507 246.826 C 171.735 246.853,171.810 247.055,171.674 247.275 C 171.538 247.495,171.571 247.636,171.748 247.589 C 172.368 247.421,173.837 248.107,173.618 248.461 C 173.496 248.658,173.698 248.704,174.067 248.562 C 174.528 248.385,174.648 248.450,174.449 248.771 C 174.290 249.028,174.306 249.193,174.483 249.137 C 175.067 248.953,179.293 250.861,179.077 251.211 C 178.961 251.399,179.167 251.438,179.536 251.296 C 179.964 251.132,180.112 251.191,179.946 251.460 C 179.778 251.732,179.984 251.802,180.529 251.660 C 181.103 251.510,181.284 251.583,181.095 251.887 C 180.910 252.187,181.041 252.250,181.489 252.078 C 181.917 251.913,182.065 251.972,181.899 252.241 C 181.731 252.513,181.937 252.584,182.482 252.441 C 183.023 252.300,183.233 252.370,183.068 252.636 C 182.904 252.903,183.114 252.973,183.654 252.832 C 184.171 252.697,184.402 252.764,184.253 253.007 C 184.101 253.252,184.397 253.328,185.031 253.207 C 185.687 253.082,185.963 253.159,185.800 253.423 C 185.639 253.683,185.854 253.753,186.389 253.613 C 186.961 253.463,187.143 253.536,186.956 253.839 C 186.761 254.154,187.058 254.220,187.969 254.063 C 188.956 253.892,189.121 253.939,188.672 254.263 C 188.228 254.584,188.407 254.625,189.416 254.431 C 190.289 254.263,190.661 254.314,190.498 254.578 C 190.335 254.841,190.887 254.920,192.097 254.804 C 193.123 254.707,193.745 254.772,193.495 254.951 C 193.247 255.128,196.010 255.273,199.634 255.273 C 203.258 255.273,205.922 255.140,205.553 254.977 C 205.181 254.812,205.788 254.743,206.920 254.821 C 208.191 254.908,208.869 254.816,208.720 254.576 C 208.576 254.343,208.957 254.261,209.690 254.369 C 210.406 254.474,210.802 254.393,210.664 254.170 C 210.526 253.948,210.851 253.873,211.454 253.988 C 212.079 254.108,212.383 254.032,212.235 253.793 C 212.087 253.554,212.390 253.478,213.016 253.598 C 213.650 253.719,213.946 253.643,213.794 253.398 C 213.644 253.155,213.876 253.087,214.393 253.222 C 214.933 253.364,215.143 253.293,214.979 253.027 C 214.814 252.761,215.024 252.690,215.564 252.832 C 216.027 252.953,216.406 252.874,216.406 252.656 C 216.406 252.438,216.679 252.365,217.012 252.493 C 217.405 252.644,217.521 252.568,217.342 252.278 C 217.154 251.973,217.335 251.901,217.908 252.050 C 218.372 252.172,218.653 252.112,218.532 251.917 C 218.332 251.592,218.987 251.413,220.211 251.457 C 220.477 251.466,220.580 251.288,220.440 251.061 C 220.279 250.802,220.433 250.744,220.855 250.906 C 221.306 251.079,221.434 251.015,221.245 250.710 C 221.057 250.405,221.184 250.342,221.636 250.515 C 222.005 250.657,222.219 250.630,222.111 250.457 C 221.920 250.147,224.415 249.060,224.780 249.294 C 224.882 249.360,225.194 249.116,225.471 248.752 C 225.749 248.388,226.226 248.036,226.530 247.971 C 226.834 247.905,227.412 247.538,227.814 247.154 C 228.215 246.770,228.741 246.577,228.981 246.726 C 229.246 246.890,229.308 246.819,229.139 246.545 C 228.986 246.297,229.046 246.072,229.274 246.045 C 229.501 246.018,229.849 245.974,230.046 245.947 C 230.243 245.920,230.550 245.738,230.729 245.543 C 230.921 245.334,230.813 245.305,230.469 245.474 C 230.146 245.632,230.216 245.490,230.624 245.159 C 231.032 244.827,231.503 244.641,231.671 244.745 C 231.840 244.849,232.104 244.729,232.260 244.477 C 232.448 244.173,232.359 244.117,231.994 244.309 C 231.692 244.469,231.880 244.246,232.411 243.814 C 232.942 243.383,233.493 243.102,233.636 243.190 C 233.893 243.349,235.044 242.185,234.872 241.941 C 234.823 241.871,235.875 240.711,237.209 239.364 C 238.543 238.016,239.374 237.266,239.056 237.695 C 238.520 238.418,238.528 238.436,239.156 237.944 C 239.529 237.651,239.763 237.295,239.675 237.152 C 239.586 237.009,239.867 236.458,240.299 235.927 C 240.730 235.395,240.953 235.208,240.794 235.510 C 240.601 235.875,240.657 235.964,240.962 235.776 C 241.213 235.620,241.334 235.355,241.230 235.187 C 241.126 235.018,241.312 234.547,241.643 234.140 C 241.974 233.732,242.116 233.662,241.959 233.984 C 241.790 234.329,241.818 234.436,242.027 234.245 C 242.223 234.066,242.405 233.758,242.432 233.561 C 242.458 233.364,242.502 233.017,242.529 232.789 C 242.556 232.562,242.758 232.487,242.978 232.623 C 243.199 232.759,243.354 232.726,243.323 232.549 C 243.178 231.716,243.401 231.230,243.810 231.483 C 244.090 231.655,244.155 231.590,243.983 231.311 C 243.655 230.780,244.668 229.174,245.075 229.580 C 245.228 229.734,245.227 229.528,245.071 229.123 C 244.897 228.668,244.938 228.480,245.181 228.630 C 245.397 228.763,245.581 228.660,245.591 228.401 C 245.626 227.516,247.138 224.612,247.418 224.892 C 247.572 225.046,247.570 224.840,247.415 224.436 C 247.230 223.953,247.278 223.789,247.553 223.960 C 247.826 224.128,247.896 223.922,247.754 223.377 C 247.604 222.804,247.676 222.623,247.981 222.811 C 248.280 222.996,248.343 222.865,248.171 222.417 C 248.007 221.989,248.066 221.841,248.335 222.007 C 248.607 222.175,248.677 221.969,248.535 221.424 C 248.394 220.884,248.464 220.673,248.730 220.838 C 248.997 221.003,249.067 220.792,248.925 220.252 C 248.790 219.735,248.858 219.504,249.101 219.654 C 249.346 219.805,249.422 219.509,249.301 218.875 C 249.181 218.250,249.257 217.946,249.496 218.094 C 249.735 218.242,249.811 217.939,249.692 217.313 C 249.577 216.711,249.651 216.386,249.873 216.523 C 250.096 216.661,250.177 216.265,250.072 215.549 C 249.972 214.865,250.052 214.439,250.257 214.566 C 250.462 214.692,250.558 214.167,250.479 213.352 C 250.386 212.388,250.459 212.086,250.702 212.435 C 250.936 212.772,251.004 212.220,250.894 210.873 C 250.801 209.727,250.869 208.992,251.046 209.240 C 251.223 209.488,251.367 207.291,251.367 204.357 L 251.367 199.023 249.023 198.949 C 247.292 198.895,246.884 198.972,247.461 199.248 C 248.000 199.505,247.211 199.571,244.922 199.463 C 242.849 199.365,241.895 199.433,242.383 199.644 C 242.893 199.864,242.126 199.951,240.173 199.893 C 238.457 199.842,237.275 199.956,237.402 200.159 C 237.526 200.358,237.211 200.404,236.682 200.262 C 236.165 200.124,235.424 200.008,235.036 200.005 C 234.619 200.002,234.439 199.822,234.596 199.568 C 234.773 199.282,234.603 199.218,234.095 199.379 C 232.541 199.872,229.829 196.273,230.697 194.869 C 230.874 194.582,230.811 194.515,230.529 194.689 C 230.110 194.948,229.924 194.407,229.972 193.071 C 229.982 192.804,229.804 192.701,229.577 192.842 C 229.317 193.002,229.259 192.848,229.421 192.427 C 229.595 191.975,229.531 191.847,229.226 192.036 C 228.921 192.224,228.857 192.097,229.031 191.645 C 229.204 191.194,229.140 191.066,228.835 191.255 C 228.530 191.443,228.467 191.316,228.640 190.864 C 228.813 190.412,228.750 190.285,228.445 190.473 C 228.140 190.662,228.076 190.535,228.249 190.083 C 228.402 189.685,228.350 189.509,228.121 189.651 C 227.908 189.782,227.734 189.704,227.734 189.476 C 227.734 189.249,227.734 188.975,227.734 188.867 C 227.734 188.760,227.376 188.314,226.939 187.876 C 226.501 187.439,226.241 186.924,226.359 186.731 C 226.478 186.539,226.369 186.255,226.118 186.099 C 225.815 185.912,225.756 186.002,225.945 186.365 C 226.102 186.667,225.959 186.581,225.627 186.173 C 225.296 185.765,225.102 185.307,225.196 185.155 C 225.290 185.004,224.889 184.458,224.304 183.943 L 223.242 183.008 224.215 184.180 C 225.095 185.240,225.049 185.223,223.727 184.005 C 222.227 182.624,221.893 182.161,222.754 182.657 C 223.022 182.812,222.816 182.471,222.295 181.899 C 221.774 181.327,221.130 180.859,220.863 180.859 C 220.596 180.859,220.309 180.655,220.226 180.405 C 220.143 180.155,219.799 179.911,219.463 179.861 C 218.616 179.737,216.797 178.506,216.797 178.057 C 216.797 177.854,216.635 177.788,216.438 177.910 C 216.240 178.032,215.843 177.897,215.555 177.609 C 215.268 177.321,214.789 177.167,214.493 177.265 C 214.169 177.373,214.062 177.271,214.224 177.008 C 214.396 176.730,214.273 176.656,213.887 176.804 C 213.553 176.932,213.281 176.832,213.281 176.581 C 213.281 176.331,213.109 176.232,212.899 176.362 C 210.480 177.857,209.193 172.537,210.511 166.500 C 210.922 164.622,211.376 161.943,211.520 160.547 C 211.665 159.150,212.033 157.141,212.337 156.081 C 212.642 155.022,212.891 154.103,212.891 154.040 C 212.891 153.977,212.319 154.024,211.621 154.144 C 210.696 154.303,210.505 154.255,210.917 153.966 C 211.324 153.681,210.994 153.618,209.745 153.744 C 208.770 153.842,208.300 153.787,208.674 153.619 C 209.040 153.455,206.052 153.267,202.033 153.203 C 198.014 153.138,194.375 152.995,193.945 152.884 C 193.377 152.738,193.308 152.783,193.692 153.049 M162.891 168.555 C 161.942 169.521,161.078 170.313,160.970 170.313 C 160.863 170.313,161.551 169.521,162.500 168.555 C 163.449 167.588,164.313 166.797,164.420 166.797 C 164.528 166.797,163.839 167.588,162.891 168.555 M338.789 181.641 C 338.789 182.822,338.862 183.306,338.952 182.715 C 339.041 182.124,339.041 181.157,338.952 180.566 C 338.862 179.976,338.789 180.459,338.789 181.641 M200.977 189.870 C 200.429 190.123,200.707 190.161,201.905 189.995 C 203.193 189.817,203.542 189.876,203.321 190.234 C 203.110 190.575,203.261 190.635,203.857 190.445 C 204.339 190.292,204.688 190.352,204.688 190.586 C 204.688 190.809,204.921 190.902,205.205 190.792 C 206.342 190.356,212.033 194.879,211.478 195.776 C 211.364 195.962,211.503 196.065,211.787 196.006 C 212.073 195.946,212.281 196.202,212.251 196.578 C 212.221 196.964,212.376 197.147,212.610 197.002 C 212.870 196.841,212.928 196.995,212.766 197.417 C 212.624 197.787,212.670 197.988,212.867 197.866 C 213.331 197.579,213.808 199.073,213.441 199.666 C 213.255 199.969,213.332 200.015,213.673 199.804 C 214.055 199.568,214.129 199.702,213.965 200.330 C 213.844 200.794,213.881 201.089,214.047 200.986 C 214.493 200.710,214.878 204.141,214.598 205.893 C 214.465 206.726,214.195 207.308,213.998 207.187 C 213.792 207.059,213.754 207.417,213.909 208.033 C 214.086 208.740,214.037 209.015,213.765 208.847 C 213.517 208.694,213.426 208.866,213.534 209.281 C 213.960 210.909,208.170 217.696,206.982 216.962 C 206.794 216.846,206.641 216.947,206.641 217.188 C 206.641 217.428,206.465 217.516,206.250 217.383 C 206.035 217.250,205.859 217.346,205.859 217.597 C 205.859 217.848,205.587 217.948,205.253 217.820 C 204.860 217.669,204.744 217.745,204.924 218.035 C 205.112 218.339,204.931 218.412,204.357 218.262 C 203.820 218.121,203.607 218.191,203.770 218.455 C 203.943 218.735,203.470 218.792,202.306 218.631 C 201.158 218.473,200.846 218.509,201.367 218.740 C 201.944 218.995,201.588 219.091,200.000 219.107 C 198.491 219.122,198.026 219.017,198.438 218.755 C 198.836 218.501,198.537 218.460,197.498 218.627 C 196.466 218.793,196.055 218.738,196.229 218.457 C 196.393 218.191,196.182 218.121,195.643 218.262 C 195.069 218.412,194.888 218.339,195.076 218.035 C 195.250 217.753,195.147 217.666,194.797 217.800 C 194.491 217.918,193.924 217.696,193.535 217.308 C 193.147 216.919,192.773 216.646,192.704 216.699 C 192.316 217.001,191.794 216.727,192.029 216.346 C 192.205 216.062,192.136 216.001,191.843 216.182 C 191.259 216.543,188.115 213.476,188.474 212.895 C 188.615 212.667,188.497 212.529,188.213 212.588 C 187.927 212.647,187.719 212.392,187.749 212.016 C 187.778 211.642,187.672 211.417,187.513 211.515 C 187.098 211.772,186.267 209.789,186.579 209.285 C 186.745 209.016,186.654 208.978,186.327 209.180 C 185.945 209.416,185.871 209.282,186.035 208.654 C 186.176 208.115,186.106 207.904,185.840 208.068 C 185.559 208.242,185.504 207.831,185.670 206.799 C 185.837 205.760,185.796 205.460,185.542 205.859 C 185.278 206.273,185.168 205.812,185.168 204.297 C 185.168 202.712,185.273 202.302,185.567 202.734 C 185.854 203.155,185.892 202.890,185.703 201.799 C 185.526 200.780,185.574 200.361,185.847 200.530 C 186.104 200.689,186.174 200.471,186.035 199.939 C 185.885 199.366,185.958 199.185,186.262 199.373 C 186.552 199.553,186.628 199.437,186.477 199.044 C 186.349 198.709,186.449 198.438,186.700 198.438 C 186.951 198.438,187.047 198.262,186.914 198.048 C 186.597 197.534,187.671 196.014,188.086 196.389 C 188.262 196.549,188.272 196.447,188.108 196.163 C 187.473 195.064,193.851 190.158,194.996 190.866 C 195.281 191.042,195.323 190.958,195.116 190.624 C 194.880 190.242,195.015 190.168,195.643 190.332 C 196.173 190.470,196.392 190.401,196.234 190.145 C 196.065 189.873,196.613 189.818,197.894 189.979 C 199.182 190.141,199.550 190.103,199.023 189.864 C 198.415 189.587,198.632 189.508,200.000 189.508 C 201.380 189.508,201.590 189.586,200.977 189.870 M147.790 203.711 C 147.792 205.430,147.860 206.084,147.943 205.165 C 148.025 204.247,148.024 202.840,147.940 202.040 C 147.856 201.240,147.789 201.992,147.790 203.711 M214.153 204.297 C 214.153 205.049,214.234 205.356,214.332 204.980 C 214.430 204.604,214.430 203.989,214.332 203.613 C 214.234 203.237,214.153 203.545,214.153 204.297 M199.126 255.745 C 199.612 255.838,200.315 255.835,200.688 255.737 C 201.062 255.639,200.664 255.563,199.805 255.567 C 198.945 255.572,198.640 255.652,199.126 255.745 " stroke="none" fill="#f7d79a" fill-rule="evenodd"></path><path id="path1" d="M236.465 63.596 C 234.615 64.351,233.203 65.505,233.203 66.262 C 233.203 67.039,231.807 69.177,231.501 68.870 C 231.354 68.723,231.276 68.944,231.328 69.360 C 231.415 70.052,231.020 71.739,230.060 74.785 C 229.800 75.609,229.834 76.034,230.180 76.281 C 230.489 76.501,230.311 76.550,229.688 76.417 C 229.150 76.303,227.964 76.090,227.051 75.945 C 226.138 75.800,225.391 75.518,225.391 75.318 C 225.391 75.118,225.226 75.056,225.024 75.180 C 224.823 75.305,222.499 75.139,219.860 74.813 C 217.221 74.486,214.310 74.219,213.391 74.219 C 211.897 74.219,211.216 73.784,212.012 73.339 C 212.173 73.249,212.041 73.268,211.719 73.381 C 210.570 73.786,202.695 73.891,201.621 73.516 C 201.019 73.307,200.276 73.272,199.970 73.439 C 199.664 73.606,196.162 73.828,192.188 73.933 C 188.213 74.038,184.697 74.218,184.375 74.332 C 184.053 74.447,181.775 74.834,179.313 75.193 C 176.851 75.552,172.984 76.254,170.720 76.753 C 168.456 77.252,166.471 77.579,166.309 77.479 C 166.148 77.379,166.016 77.484,166.016 77.711 C 166.016 77.939,165.738 78.125,165.399 78.125 C 164.131 78.125,151.923 82.438,146.664 84.744 C 128.065 92.899,108.978 107.412,96.940 122.553 C 95.529 124.329,94.234 125.781,94.062 125.781 C 93.890 125.781,93.750 125.976,93.750 126.215 C 93.750 126.454,92.905 127.816,91.872 129.242 C 89.256 132.853,86.800 136.714,84.577 140.706 C 83.536 142.577,82.510 144.000,82.297 143.868 C 82.085 143.737,82.022 143.809,82.157 144.028 C 82.293 144.248,81.289 146.868,79.925 149.851 C 77.047 156.149,74.316 163.551,73.025 168.555 C 72.526 170.488,72.019 172.158,71.899 172.266 C 71.778 172.373,71.678 172.725,71.676 173.047 C 71.672 173.739,69.937 183.134,69.657 183.984 C 69.550 184.307,69.409 185.361,69.343 186.328 C 69.277 187.295,69.004 190.459,68.737 193.359 C 68.415 196.860,68.333 201.654,68.493 207.617 C 68.714 215.796,68.876 217.972,69.757 224.571 C 69.989 226.313,69.943 226.631,69.492 226.397 C 69.191 226.241,69.253 226.366,69.629 226.674 C 70.556 227.434,70.490 228.378,69.492 228.639 C 69.016 228.764,68.784 229.037,68.941 229.290 C 69.138 229.608,69.357 229.603,69.757 229.272 C 70.416 228.725,70.221 228.169,72.089 235.920 C 72.890 239.241,74.209 243.934,75.020 246.350 C 76.386 250.414,76.487 252.529,75.257 251.299 C 75.116 251.157,75.000 251.456,75.000 251.963 C 75.000 252.856,75.017 252.861,75.574 252.125 C 76.133 251.386,76.147 251.389,76.159 252.246 C 76.166 252.729,76.343 253.125,76.553 253.125 C 76.798 253.125,76.801 252.776,76.563 252.148 C 76.358 251.611,76.320 251.172,76.477 251.172 C 76.986 251.172,78.542 255.723,78.293 256.486 C 78.122 257.010,78.158 257.077,78.417 256.717 C 78.771 256.224,81.344 261.177,81.370 262.402 C 81.376 262.671,81.571 262.893,81.803 262.897 C 82.078 262.900,82.089 263.003,81.836 263.190 C 81.621 263.347,81.445 263.740,81.445 264.063 C 81.445 264.385,81.621 264.778,81.836 264.935 C 82.078 265.113,82.041 265.225,81.738 265.228 C 81.443 265.232,81.559 265.543,82.031 266.016 C 82.964 266.949,83.519 267.062,82.777 266.168 C 82.311 265.607,81.718 263.214,82.159 263.679 C 82.742 264.292,84.674 268.321,84.479 268.516 C 84.350 268.644,84.433 268.750,84.663 268.750 C 85.098 268.750,88.691 274.595,88.554 275.081 C 88.511 275.233,88.828 275.637,89.258 275.980 C 90.021 276.588,90.016 276.598,89.063 276.391 C 88.144 276.192,88.151 276.210,89.169 276.687 C 90.691 277.401,91.694 278.874,90.970 279.333 C 90.547 279.601,90.541 279.677,90.941 279.682 C 91.222 279.685,91.362 279.834,91.251 280.013 C 91.141 280.192,91.303 280.339,91.613 280.339 C 92.037 280.339,92.069 280.211,91.743 279.818 C 91.505 279.531,91.396 279.297,91.500 279.297 C 91.720 279.297,95.611 284.475,95.610 284.766 C 95.609 284.873,96.419 285.840,97.409 286.914 C 99.365 289.035,99.634 289.653,98.467 289.348 C 97.980 289.220,97.779 289.319,97.898 289.628 C 98.108 290.175,99.219 290.281,99.219 289.754 C 99.219 289.297,112.477 302.818,112.490 303.288 C 112.495 303.485,112.607 303.539,112.738 303.408 C 112.968 303.178,118.448 307.684,119.434 308.915 C 119.702 309.250,119.922 309.404,119.922 309.257 C 119.922 309.110,120.757 309.630,121.777 310.412 C 122.798 311.195,123.585 311.997,123.525 312.196 C 123.466 312.395,123.592 312.451,123.804 312.319 C 124.017 312.188,124.534 312.424,124.953 312.844 C 125.373 313.263,125.791 313.532,125.883 313.440 C 125.974 313.348,126.516 313.706,127.087 314.235 C 127.658 314.764,128.125 315.116,128.125 315.016 C 128.125 314.917,129.088 315.475,130.266 316.257 C 131.443 317.039,132.319 317.819,132.212 317.992 C 132.106 318.164,132.224 318.433,132.476 318.588 C 132.761 318.765,132.829 318.701,132.654 318.420 C 132.069 317.473,139.634 321.433,140.326 322.436 C 140.484 322.664,140.616 322.732,140.619 322.585 C 140.627 322.213,148.178 325.773,148.529 326.315 C 148.687 326.559,148.819 326.635,148.822 326.485 C 148.825 326.335,149.366 326.400,150.024 326.629 C 150.854 326.919,151.150 327.228,150.992 327.641 C 150.811 328.112,150.877 328.141,151.309 327.783 C 151.876 327.312,153.125 327.568,153.125 328.155 C 153.125 328.340,153.389 328.390,153.711 328.266 C 154.033 328.143,154.297 328.221,154.297 328.441 C 154.297 328.661,154.090 328.910,153.837 328.994 C 153.555 329.088,153.505 329.354,153.706 329.680 C 153.959 330.088,154.111 330.005,154.364 329.323 C 154.605 328.672,154.875 328.510,155.374 328.720 C 157.087 329.439,165.811 332.018,169.336 332.847 C 171.484 333.352,173.330 333.859,173.438 333.973 C 173.545 334.087,174.160 334.201,174.805 334.226 C 175.449 334.252,178.438 334.663,181.445 335.140 C 194.570 337.220,215.357 336.515,228.076 333.558 C 230.589 332.973,231.473 332.902,231.894 333.251 C 232.195 333.501,232.554 333.592,232.692 333.454 C 232.830 333.316,232.702 333.203,232.409 333.203 C 231.189 333.203,232.796 332.449,235.742 331.638 C 240.293 330.386,247.648 327.669,253.040 325.249 C 256.556 323.671,257.859 323.249,258.193 323.580 C 258.527 323.912,258.584 323.876,258.417 323.437 C 258.253 323.006,259.350 322.232,262.572 320.507 C 264.980 319.219,269.144 316.710,271.825 314.932 C 275.504 312.493,276.788 311.822,277.059 312.198 C 277.320 312.559,277.361 312.519,277.212 312.050 C 276.999 311.378,283.232 306.120,284.242 306.120 C 284.511 306.120,284.662 306.008,284.577 305.871 C 284.426 305.626,290.314 300.052,290.896 299.888 C 291.060 299.842,293.131 297.698,295.499 295.124 C 297.867 292.549,300.244 289.976,300.781 289.406 C 301.318 288.836,301.934 288.113,302.148 287.800 C 302.363 287.486,303.795 285.570,305.329 283.541 C 308.797 278.956,312.452 273.321,315.429 267.969 C 316.684 265.713,317.901 263.738,318.133 263.580 C 318.365 263.422,318.434 263.291,318.287 263.287 C 318.140 263.284,318.732 261.743,319.603 259.863 C 321.442 255.894,324.225 248.841,325.228 245.605 C 325.685 244.130,326.134 243.357,326.536 243.353 C 326.951 243.349,327.002 243.254,326.694 243.058 C 326.360 242.846,326.533 241.625,327.343 238.474 C 330.543 226.029,331.665 216.756,331.715 202.344 C 331.732 197.295,331.825 193.384,331.922 193.652 C 332.173 194.353,337.273 194.282,339.763 193.542 C 341.867 192.918,345.019 190.520,346.132 188.698 C 347.676 186.171,347.802 174.071,346.328 169.922 C 345.756 168.311,345.022 165.352,344.698 163.348 C 344.375 161.344,343.868 159.059,343.573 158.270 C 343.278 157.481,342.942 155.919,342.827 154.799 C 342.712 153.679,341.987 150.955,341.215 148.745 C 340.443 146.535,339.718 144.287,339.603 143.750 C 339.331 142.477,339.214 142.210,336.015 135.547 C 334.520 132.432,333.167 129.460,333.009 128.943 C 332.850 128.426,331.492 126.074,329.991 123.718 C 327.834 120.334,327.372 119.355,327.790 119.062 C 328.219 118.762,328.208 118.723,327.734 118.859 C 327.203 119.012,324.587 115.537,322.656 112.114 C 322.334 111.543,321.853 110.825,321.588 110.518 C 320.489 109.248,319.233 107.531,318.426 106.194 C 317.953 105.411,316.997 104.336,316.303 103.805 C 315.608 103.274,314.160 101.897,313.086 100.744 C 310.129 97.572,304.229 91.797,303.945 91.797 C 303.477 91.797,300.000 88.409,300.000 87.953 C 300.000 87.704,299.742 87.500,299.428 87.500 C 299.113 87.500,298.278 86.996,297.572 86.380 C 296.866 85.763,295.234 84.705,293.945 84.027 C 292.656 83.350,291.294 82.428,290.918 81.980 C 290.542 81.531,290.234 81.301,290.234 81.470 C 290.234 81.639,289.839 81.412,289.355 80.965 C 288.872 80.519,287.246 79.489,285.742 78.677 C 284.238 77.865,282.129 76.704,281.055 76.097 C 279.980 75.490,278.179 74.535,277.051 73.974 C 275.923 73.414,275.000 72.790,275.000 72.587 C 275.000 72.385,274.817 72.333,274.592 72.472 C 274.368 72.610,273.968 72.544,273.704 72.325 C 273.440 72.106,271.822 71.539,270.108 71.065 C 264.457 69.503,264.063 69.373,264.063 69.060 C 264.063 68.889,263.738 68.750,263.342 68.750 C 262.223 68.750,258.083 67.232,257.734 66.693 C 257.494 66.323,257.333 66.347,257.037 66.797 C 256.793 67.169,256.650 67.209,256.647 66.907 C 256.643 66.645,256.377 66.532,256.055 66.656 C 255.732 66.779,255.469 66.678,255.469 66.431 C 255.469 66.184,255.249 66.032,254.980 66.093 C 254.712 66.155,253.262 65.814,251.758 65.337 C 244.107 62.909,239.447 62.379,236.465 63.596 M247.802 72.056 C 259.604 74.454,281.442 83.689,286.395 88.376 C 286.680 88.646,287.393 89.114,287.978 89.416 C 289.449 90.175,296.535 95.533,297.328 96.486 C 297.685 96.915,298.085 97.266,298.218 97.266 C 298.826 97.266,308.203 106.186,308.203 106.765 C 308.203 106.971,308.818 107.664,309.570 108.307 C 310.322 108.949,310.938 109.696,310.938 109.966 C 310.938 110.236,311.377 110.745,311.914 111.097 C 312.451 111.449,312.891 111.886,312.891 112.069 C 312.891 112.252,313.506 113.073,314.258 113.894 C 315.010 114.715,315.625 115.519,315.625 115.681 C 315.625 115.843,316.064 116.450,316.602 117.029 C 317.139 117.609,317.578 118.306,317.578 118.579 C 317.578 118.852,317.720 119.134,317.894 119.206 C 318.333 119.387,320.703 122.906,320.703 123.378 C 320.703 123.590,320.844 123.822,321.017 123.893 C 322.095 124.341,328.939 138.004,331.596 145.013 C 335.887 156.333,338.775 169.146,339.320 179.285 C 339.681 185.985,339.781 185.902,330.632 186.572 C 321.222 187.261,296.045 188.979,295.313 188.982 C 294.990 188.983,287.256 189.526,278.125 190.187 C 263.656 191.236,254.424 191.881,240.430 192.819 L 236.914 193.055 235.802 190.300 C 232.981 183.309,226.809 176.323,219.824 172.218 C 217.269 170.717,217.188 170.620,217.188 169.112 C 217.188 167.885,220.715 150.445,222.673 141.992 C 222.872 141.133,223.494 138.320,224.056 135.742 C 224.617 133.164,225.241 130.854,225.441 130.609 C 225.642 130.364,225.968 128.782,226.167 127.094 C 226.511 124.170,228.263 115.929,233.549 92.383 C 238.390 70.818,237.933 72.381,239.609 71.652 C 241.315 70.909,242.427 70.964,247.802 72.056 M157.031 79.297 C 156.557 79.603,156.614 79.677,157.324 79.682 C 157.808 79.685,158.203 79.512,158.203 79.297 C 158.203 78.807,157.789 78.807,157.031 79.297 M150.488 81.672 C 150.953 81.942,151.391 81.942,151.855 81.672 C 152.413 81.347,152.287 81.274,151.172 81.274 C 150.056 81.274,149.931 81.347,150.488 81.672 M140.689 85.203 C 140.772 85.785,141.108 86.154,141.602 86.204 C 142.313 86.276,142.317 86.264,141.643 86.071 C 141.221 85.950,141.076 85.749,141.306 85.605 C 141.566 85.442,141.505 85.161,141.134 84.817 C 140.637 84.355,140.576 84.408,140.689 85.203 M198.605 88.114 C 200.898 90.407,198.891 91.729,192.133 92.378 C 152.265 96.208,118.978 117.576,100.249 151.360 C 93.708 163.158,88.281 181.614,88.281 192.060 C 88.281 193.190,85.182 193.746,84.365 192.761 C 83.248 191.415,84.950 178.505,87.342 170.189 C 99.235 128.826,136.992 96.223,181.508 88.879 C 190.171 87.450,197.608 87.117,198.605 88.114 M131.811 90.975 C 131.930 91.167,131.739 91.435,131.387 91.570 C 131.035 91.705,130.856 91.924,130.989 92.057 C 131.273 92.341,132.422 91.468,132.422 90.968 C 132.422 90.779,132.236 90.625,132.008 90.625 C 131.781 90.625,131.692 90.782,131.811 90.975 M125.441 94.101 C 125.146 94.288,124.985 94.680,125.082 94.973 C 125.206 95.344,125.402 95.239,125.730 94.628 C 126.249 93.657,126.221 93.607,125.441 94.101 M157.955 118.778 C 160.166 120.517,159.319 121.695,153.320 125.227 C 130.484 138.673,114.594 161.385,109.805 187.425 C 109.200 190.713,108.548 193.550,108.357 193.728 C 107.450 194.572,106.299 194.536,105.248 193.632 L 104.169 192.704 104.846 188.246 C 109.158 159.837,126.938 134.565,153.116 119.634 C 156.481 117.715,156.581 117.697,157.955 118.778 M98.438 119.113 C 98.438 119.313,98.042 119.535,97.559 119.605 C 96.841 119.710,96.798 119.782,97.327 119.997 C 97.730 120.161,98.231 119.975,98.657 119.505 C 99.052 119.068,99.150 118.750,98.889 118.750 C 98.641 118.750,98.438 118.914,98.438 119.113 M244.282 125.586 C 244.158 125.908,243.812 126.172,243.513 126.172 C 243.214 126.172,242.969 126.348,242.969 126.563 C 242.969 126.777,242.705 126.953,242.383 126.953 C 242.061 126.953,241.797 127.129,241.797 127.344 C 241.797 127.559,241.533 127.734,241.211 127.734 C 240.889 127.734,240.625 127.910,240.625 128.125 C 240.625 128.340,240.361 128.516,240.039 128.516 C 239.717 128.516,239.453 128.680,239.453 128.880 C 239.453 129.080,239.058 129.368,238.574 129.519 C 237.270 129.926,237.121 130.366,237.128 133.789 C 237.133 136.471,237.208 136.817,237.653 136.230 C 237.939 135.854,238.452 135.547,238.793 135.547 C 239.135 135.547,239.555 135.312,239.727 135.024 C 240.062 134.464,243.180 133.544,243.536 133.900 C 243.654 134.018,243.750 140.129,243.750 147.480 L 243.750 160.846 244.629 161.082 C 245.773 161.388,248.593 161.394,249.382 161.091 C 250.324 160.730,250.324 125.599,249.382 125.237 C 248.078 124.736,244.514 124.980,244.282 125.586 M273.828 125.763 C 273.506 125.981,272.759 126.163,272.168 126.166 C 271.577 126.169,271.094 126.348,271.094 126.563 C 271.094 126.777,270.777 126.953,270.389 126.953 C 269.628 126.953,267.188 129.250,267.188 129.967 C 267.188 130.207,266.988 130.470,266.743 130.552 C 264.335 131.355,263.315 154.297,265.688 154.297 C 265.868 154.297,266.016 154.728,266.016 155.254 C 266.016 155.780,266.239 156.352,266.512 156.524 C 266.785 156.695,267.218 157.312,267.473 157.894 C 268.177 159.499,270.830 161.058,273.385 161.370 C 277.094 161.821,283.203 160.014,283.203 158.466 C 283.203 158.210,283.555 157.781,283.984 157.513 C 284.414 157.244,284.766 156.675,284.766 156.247 C 284.766 155.819,284.904 155.469,285.073 155.469 C 285.396 155.469,286.397 151.255,287.150 146.733 C 287.490 144.686,287.484 143.395,287.121 141.265 C 286.861 139.731,286.691 138.301,286.745 138.086 C 286.799 137.871,286.740 137.432,286.614 137.109 C 286.489 136.787,286.114 135.396,285.781 134.019 C 285.108 131.229,283.523 128.526,282.386 128.229 C 281.976 128.122,281.641 127.879,281.641 127.689 C 281.641 127.499,281.390 127.344,281.083 127.344 C 280.776 127.344,280.286 127.106,279.995 126.815 C 279.501 126.320,278.426 126.013,275.586 125.555 C 274.941 125.451,274.150 125.545,273.828 125.763 M304.297 125.646 C 303.975 125.695,302.500 125.849,301.020 125.990 C 298.909 126.191,298.125 126.449,297.388 127.185 C 296.872 127.702,296.281 128.125,296.076 128.125 C 295.871 128.125,295.703 128.346,295.703 128.617 C 295.703 128.888,295.372 129.316,294.968 129.568 C 294.269 130.005,293.225 132.866,292.145 137.305 C 291.101 141.597,292.406 154.780,294.005 156.098 C 294.294 156.336,294.531 156.737,294.531 156.989 C 294.531 157.241,294.778 157.541,295.079 157.656 C 295.380 157.772,295.707 158.175,295.806 158.553 C 296.267 160.319,306.426 162.167,306.955 160.582 C 307.033 160.348,307.433 160.156,307.845 160.156 C 308.257 160.156,308.594 159.980,308.594 159.766 C 308.594 159.551,308.863 159.375,309.192 159.375 C 309.521 159.375,309.891 159.111,310.015 158.789 C 310.139 158.467,310.441 158.202,310.686 158.200 C 312.615 158.189,315.139 148.768,314.925 142.383 C 314.842 139.920,313.596 132.813,313.247 132.813 C 313.103 132.813,312.754 132.241,312.472 131.543 C 312.189 130.845,311.861 130.186,311.741 130.078 C 311.621 129.971,311.336 129.543,311.107 129.128 C 310.878 128.712,310.350 128.185,309.935 127.956 C 309.520 127.727,309.039 127.319,308.867 127.051 C 308.696 126.782,308.168 126.561,307.695 126.560 C 307.223 126.559,306.396 126.333,305.859 126.058 C 305.322 125.783,304.619 125.598,304.297 125.646 M278.637 132.649 C 281.547 135.560,281.156 153.456,278.147 155.067 C 275.210 156.638,271.855 154.943,271.120 151.517 C 269.924 145.939,270.793 134.391,272.541 132.644 C 273.989 131.195,277.185 131.198,278.637 132.649 M306.365 132.644 C 309.287 135.565,308.949 152.336,305.920 154.727 C 304.623 155.751,301.245 155.619,300.004 154.496 C 297.556 152.280,297.448 135.685,299.863 132.814 C 301.243 131.174,304.802 131.081,306.365 132.644 M257.422 135.509 C 257.422 135.702,256.895 136.045,256.250 136.270 C 255.477 136.539,255.078 136.943,255.078 137.457 C 255.078 137.885,254.910 138.339,254.705 138.466 C 253.830 139.006,255.867 141.659,257.271 141.808 C 259.227 142.017,259.811 141.782,260.215 140.625 C 260.439 139.980,260.782 139.453,260.976 139.453 C 261.170 139.453,261.328 139.189,261.328 138.867 C 261.328 138.545,261.170 138.281,260.976 138.281 C 260.782 138.281,260.439 137.754,260.215 137.109 C 259.940 136.321,259.544 135.938,259.005 135.938 C 258.564 135.938,258.203 135.762,258.203 135.547 C 258.203 135.332,258.027 135.156,257.813 135.156 C 257.598 135.156,257.422 135.315,257.422 135.509 M197.949 151.832 C 197.573 151.930,196.958 151.930,196.582 151.832 C 196.206 151.734,196.514 151.653,197.266 151.653 C 198.018 151.653,198.325 151.734,197.949 151.832 M201.855 151.832 C 201.479 151.930,200.864 151.930,200.488 151.832 C 200.112 151.734,200.420 151.653,201.172 151.653 C 201.924 151.653,202.231 151.734,201.855 151.832 M209.554 153.318 C 211.479 153.659,213.129 154.014,213.222 154.107 C 213.315 154.200,212.575 158.054,211.578 162.671 C 209.145 173.942,209.279 174.876,213.541 176.329 C 220.741 178.782,228.289 187.096,231.039 195.601 C 232.307 199.525,233.746 199.910,244.141 199.114 C 248.115 198.810,251.455 198.636,251.563 198.728 C 251.670 198.820,251.734 201.297,251.705 204.233 C 251.242 250.585,195.708 273.104,162.871 240.255 C 127.062 204.432,159.295 144.404,209.554 153.318 M255.923 154.806 C 253.514 157.709,256.304 161.683,259.635 160.093 C 260.980 159.450,261.484 156.018,260.370 155.093 C 259.405 154.293,256.504 154.106,255.923 154.806 M75.000 157.031 C 75.000 157.461,75.170 157.813,75.378 157.813 C 75.586 157.813,75.644 157.520,75.507 157.162 C 75.340 156.725,75.408 156.605,75.715 156.795 C 75.966 156.950,76.172 156.891,76.172 156.664 C 76.172 156.436,75.908 156.250,75.586 156.250 C 75.260 156.250,75.000 156.597,75.000 157.031 M68.750 179.418 C 68.750 179.996,68.915 180.469,69.118 180.469 C 69.783 180.469,69.862 179.887,69.301 179.120 C 68.776 178.402,68.750 178.417,68.750 179.418 M346.378 183.496 C 346.294 184.302,346.225 183.643,346.225 182.031 C 346.225 180.420,346.294 179.761,346.378 180.566 C 346.463 181.372,346.463 182.690,346.378 183.496 M194.880 191.154 C 183.481 195.843,182.740 211.505,193.663 216.878 C 204.712 222.313,216.859 212.175,213.450 200.364 C 211.187 192.521,202.287 188.107,194.880 191.154 M202.221 198.073 C 205.591 199.350,207.463 203.527,206.113 206.757 C 203.952 211.928,196.641 212.324,194.132 207.405 C 191.327 201.906,196.521 195.913,202.221 198.073 M252.613 205.371 C 252.515 205.747,252.434 205.439,252.434 204.688 C 252.434 203.936,252.515 203.628,252.613 204.004 C 252.711 204.380,252.711 204.995,252.613 205.371 M293.272 226.389 C 294.507 227.254,294.387 228.573,292.587 233.959 C 282.583 263.885,260.038 286.816,230.042 297.576 C 218.713 301.640,207.939 303.677,206.183 302.088 C 204.003 300.115,205.718 298.290,210.352 297.652 C 245.815 292.770,276.161 267.232,288.098 232.227 C 290.328 225.687,291.072 224.848,293.272 226.389 M313.839 229.129 C 315.017 230.308,314.133 235.300,311.214 243.945 C 298.269 282.294,261.417 314.068,221.743 321.090 C 208.343 323.462,205.102 323.301,205.084 320.263 C 205.075 318.667,205.731 318.418,211.553 317.801 C 257.613 312.926,297.899 278.526,309.028 234.570 C 310.512 228.711,311.877 227.167,313.839 229.129 M69.730 230.475 C 69.969 230.861,69.860 230.926,69.302 230.729 C 68.603 230.484,68.599 230.501,69.238 230.999 C 69.614 231.292,69.922 231.732,69.922 231.977 C 69.922 232.222,70.104 232.422,70.326 232.422 C 70.600 232.422,70.605 232.186,70.340 231.692 C 70.125 231.291,70.043 230.869,70.157 230.755 C 70.271 230.640,70.150 230.414,69.888 230.252 C 69.561 230.050,69.511 230.120,69.730 230.475 M201.281 256.535 C 200.375 256.617,198.793 256.618,197.766 256.538 C 196.739 256.457,197.480 256.390,199.414 256.389 C 201.348 256.387,202.188 256.454,201.281 256.535 M78.516 258.594 C 78.906 258.846,78.939 258.974,78.613 258.978 C 78.345 258.982,78.128 259.380,78.131 259.863 C 78.136 260.726,78.146 260.725,78.654 259.766 C 79.213 258.709,79.129 258.200,78.395 258.209 C 78.115 258.213,78.164 258.366,78.516 258.594 M84.766 270.710 C 84.341 270.979,84.320 271.083,84.691 271.088 C 84.972 271.091,85.116 271.233,85.011 271.403 C 84.906 271.574,85.201 271.742,85.667 271.777 C 86.132 271.812,86.322 271.716,86.089 271.565 C 85.855 271.413,85.594 271.075,85.508 270.813 C 85.402 270.490,85.164 270.457,84.766 270.710 M311.006 276.563 C 311.113 276.885,310.954 277.330,310.653 277.553 C 310.209 277.880,310.253 277.958,310.883 277.958 C 311.311 277.958,311.576 277.819,311.472 277.651 C 311.367 277.482,311.556 277.344,311.891 277.344 C 312.226 277.344,312.500 277.139,312.500 276.888 C 312.500 276.637,312.384 276.548,312.243 276.689 C 312.102 276.831,311.721 276.728,311.398 276.461 C 310.917 276.065,310.846 276.083,311.006 276.563 M147.645 326.931 C 148.259 328.079,148.821 328.267,148.303 327.152 C 148.055 326.616,147.714 326.177,147.545 326.175 C 147.376 326.173,147.421 326.514,147.645 326.931 M155.566 329.807 C 155.942 330.111,156.250 330.581,156.250 330.853 C 156.250 331.247,156.368 331.248,156.836 330.859 C 157.306 330.469,157.557 330.479,158.105 330.909 C 158.726 331.396,158.739 331.382,158.249 330.757 C 157.951 330.378,157.512 330.107,157.272 330.155 C 157.032 330.203,156.396 330.020,155.859 329.748 C 155.000 329.313,154.965 329.320,155.566 329.807 M167.969 333.558 C 167.969 333.779,167.661 333.852,167.285 333.719 C 166.753 333.532,166.702 333.587,167.052 333.967 C 167.362 334.304,167.713 334.338,168.177 334.079 C 168.632 333.824,168.708 333.614,168.410 333.429 C 168.167 333.280,167.969 333.338,167.969 333.558 M182.137 336.364 C 182.518 336.586,182.727 336.932,182.602 337.133 C 182.478 337.335,182.581 337.500,182.831 337.500 C 183.086 337.500,183.182 337.228,183.050 336.882 C 182.919 336.542,182.813 336.191,182.813 336.101 C 182.813 336.011,182.505 335.943,182.129 335.949 C 181.483 335.961,181.483 335.983,182.137 336.364 M184.280 336.597 C 184.550 336.700,184.672 336.944,184.552 337.138 C 184.433 337.332,184.607 337.386,184.941 337.258 C 185.824 336.920,185.682 336.501,184.668 336.451 C 184.185 336.427,184.010 336.493,184.280 336.597 M189.063 337.109 C 189.063 337.324,189.424 337.500,189.867 337.500 C 190.309 337.500,190.562 337.324,190.430 337.109 C 190.297 336.895,189.935 336.719,189.625 336.719 C 189.316 336.719,189.063 336.895,189.063 337.109 M210.021 337.012 C 209.817 337.343,212.344 337.395,212.672 337.067 C 212.777 336.962,212.267 336.836,211.539 336.787 C 210.811 336.738,210.128 336.839,210.021 337.012 " stroke="none" fill="#0c1a28" fill-rule="evenodd"></path><path id="path2" d="M239.639 71.639 C 238.465 72.151,237.492 73.649,237.509 74.921 C 237.513 75.287,237.838 74.879,238.231 74.015 C 239.496 71.230,240.778 71.020,247.802 72.446 C 262.352 75.401,282.232 84.804,293.945 94.273 L 295.898 95.852 294.540 94.398 C 293.086 92.841,287.847 89.063,287.143 89.063 C 286.910 89.063,286.719 88.917,286.719 88.740 C 286.719 88.314,279.678 84.157,275.000 81.821 C 260.837 74.749,243.776 69.836,239.639 71.639 M309.764 109.178 C 310.268 109.714,310.769 110.064,310.878 109.955 C 311.098 109.735,309.568 108.203,309.128 108.203 C 308.974 108.203,309.260 108.642,309.764 109.178 M311.916 111.721 C 312.306 112.152,312.710 112.420,312.814 112.317 C 313.076 112.054,312.102 110.938,311.610 110.938 C 311.389 110.938,311.526 111.290,311.916 111.721 M314.109 114.453 C 315.333 115.975,315.966 116.511,315.380 115.527 C 314.615 114.243,313.491 112.891,313.189 112.891 C 313.005 112.891,313.419 113.594,314.109 114.453 M316.468 117.578 C 316.945 118.223,317.399 118.750,317.478 118.750 C 317.558 118.750,317.311 118.223,316.930 117.578 C 316.549 116.934,316.095 116.406,315.920 116.406 C 315.745 116.406,315.991 116.934,316.468 117.578 M318.240 120.343 C 318.628 121.004,319.195 121.751,319.500 122.003 C 319.805 122.255,319.562 121.714,318.960 120.801 C 317.695 118.884,317.197 118.566,318.240 120.343 M323.692 129.102 C 324.691 131.035,325.667 132.793,325.860 133.008 C 326.649 133.883,323.702 127.787,322.825 126.730 C 322.195 125.972,322.488 126.771,323.692 129.102 M331.439 145.508 C 333.327 151.111,334.475 154.784,335.375 158.104 C 335.972 160.306,336.528 162.040,336.610 161.958 C 337.024 161.544,332.520 146.569,331.604 145.313 C 331.257 144.837,331.226 144.873,331.439 145.508 M200.488 152.613 C 200.864 152.711,201.479 152.711,201.855 152.613 C 202.231 152.515,201.924 152.434,201.172 152.434 C 200.420 152.434,200.112 152.515,200.488 152.613 M212.379 155.928 C 212.058 157.072,211.696 159.063,211.574 160.352 C 211.396 162.252,211.537 161.890,212.321 158.435 C 213.338 153.955,213.374 152.383,212.379 155.928 M218.576 160.764 C 218.429 161.548,218.387 162.267,218.483 162.363 C 218.578 162.458,218.777 161.895,218.924 161.111 C 219.071 160.327,219.113 159.608,219.017 159.512 C 218.922 159.417,218.723 159.980,218.576 160.764 M217.188 170.481 C 217.188 170.583,218.268 171.299,219.589 172.073 C 226.661 176.218,232.430 182.604,235.614 189.814 C 236.288 191.340,236.905 192.522,236.986 192.441 C 237.867 191.560,231.903 181.941,228.078 178.071 C 224.767 174.722,217.188 169.440,217.188 170.481 M337.891 185.031 C 337.025 185.947,337.008 186.014,337.747 185.621 C 338.205 185.377,338.683 184.909,338.809 184.581 C 339.115 183.783,339.031 183.824,337.891 185.031 M318.072 187.390 C 318.666 187.479,319.544 187.477,320.025 187.384 C 320.505 187.292,320.020 187.218,318.945 187.221 C 317.871 187.224,317.478 187.300,318.072 187.390 M311.230 187.783 C 311.929 187.869,313.071 187.869,313.770 187.783 C 314.468 187.696,313.896 187.625,312.500 187.625 C 311.104 187.625,310.532 187.696,311.230 187.783 M306.934 188.166 C 307.417 188.259,308.208 188.259,308.691 188.166 C 309.175 188.073,308.779 187.997,307.813 187.997 C 306.846 187.997,306.450 188.073,306.934 188.166 M251.669 203.906 C 251.669 204.873,251.745 205.269,251.838 204.785 C 251.931 204.302,251.931 203.511,251.838 203.027 C 251.745 202.544,251.669 202.939,251.669 203.906 M185.638 204.297 C 185.638 205.049,185.718 205.356,185.816 204.980 C 185.914 204.604,185.914 203.989,185.816 203.613 C 185.718 203.237,185.638 203.545,185.638 204.297 " stroke="none" fill="#616363" fill-rule="evenodd"></path><path id="path3" d="M195.225 73.724 C 196.144 73.807,197.550 73.805,198.350 73.721 C 199.150 73.638,198.398 73.570,196.680 73.571 C 194.961 73.573,194.306 73.642,195.225 73.724 M202.832 73.717 C 203.423 73.807,204.390 73.807,204.980 73.717 C 205.571 73.628,205.088 73.555,203.906 73.555 C 202.725 73.555,202.241 73.628,202.832 73.717 M228.799 75.550 C 228.138 76.053,228.138 76.084,228.813 76.261 C 229.307 76.390,229.520 76.228,229.520 75.723 C 229.520 75.325,229.514 75.006,229.506 75.012 C 229.498 75.019,229.180 75.261,228.799 75.550 M188.477 87.924 C 141.370 92.755,99.910 126.479,87.342 170.189 C 84.950 178.505,83.248 191.415,84.365 192.761 C 85.182 193.746,88.281 193.190,88.281 192.060 C 88.281 188.217,90.490 176.264,92.378 169.887 C 100.612 142.078,124.325 115.590,152.344 102.904 C 154.600 101.883,156.533 100.944,156.641 100.817 C 156.748 100.690,157.100 100.534,157.422 100.470 C 157.744 100.407,159.335 99.855,160.956 99.244 C 169.964 95.850,180.770 93.470,192.133 92.378 C 198.120 91.803,199.219 91.375,199.219 89.616 C 199.219 87.471,196.727 87.078,188.477 87.924 M300.000 98.876 C 303.480 102.329,308.121 106.530,306.055 104.357 C 304.766 103.001,302.656 100.996,301.367 99.900 C 300.078 98.804,299.463 98.343,300.000 98.876 M153.116 119.634 C 126.957 134.554,109.157 159.841,104.853 188.199 L 104.184 192.610 105.021 193.390 C 105.482 193.820,105.862 194.032,105.865 193.863 C 105.869 193.693,106.015 193.781,106.191 194.058 C 106.672 194.816,108.526 193.976,108.780 192.885 C 108.895 192.394,109.420 189.619,109.947 186.719 C 114.530 161.513,130.750 138.517,153.320 125.227 C 159.319 121.695,160.166 120.517,157.955 118.778 C 156.581 117.697,156.481 117.715,153.116 119.634 M227.517 119.705 C 227.370 120.489,227.338 121.218,227.445 121.325 C 227.553 121.433,227.761 120.879,227.908 120.095 C 228.055 119.312,228.087 118.582,227.980 118.475 C 227.873 118.367,227.664 118.921,227.517 119.705 M226.567 124.001 C 226.317 125.205,226.183 126.401,226.269 126.660 C 226.356 126.918,226.645 126.018,226.912 124.660 C 227.179 123.301,227.313 122.105,227.210 122.001 C 227.106 121.898,226.817 122.798,226.567 124.001 M225.233 130.799 C 225.120 130.981,224.940 131.903,224.832 132.850 C 224.641 134.520,224.687 134.428,225.388 131.738 C 225.709 130.503,225.647 130.128,225.233 130.799 M327.930 137.500 C 328.263 138.145,328.604 138.672,328.687 138.672 C 328.770 138.672,328.639 138.145,328.396 137.500 C 328.153 136.855,327.812 136.328,327.639 136.328 C 327.465 136.328,327.596 136.855,327.930 137.500 M196.582 151.832 C 196.958 151.930,197.573 151.930,197.949 151.832 C 198.325 151.734,198.018 151.653,197.266 151.653 C 196.514 151.653,196.206 151.734,196.582 151.832 M200.488 151.832 C 200.864 151.930,201.479 151.930,201.855 151.832 C 202.231 151.734,201.924 151.653,201.172 151.653 C 200.420 151.653,200.112 151.734,200.488 151.832 M339.184 181.055 C 339.186 182.344,339.259 182.824,339.346 182.122 C 339.433 181.420,339.431 180.365,339.342 179.778 C 339.252 179.191,339.181 179.766,339.184 181.055 M346.225 182.031 C 346.225 183.643,346.294 184.302,346.378 183.496 C 346.463 182.690,346.463 181.372,346.378 180.566 C 346.294 179.761,346.225 180.420,346.225 182.031 M331.747 198.438 C 331.747 199.404,331.823 199.800,331.916 199.316 C 332.009 198.833,332.009 198.042,331.916 197.559 C 331.823 197.075,331.747 197.471,331.747 198.438 M252.434 204.688 C 252.434 205.439,252.515 205.747,252.613 205.371 C 252.711 204.995,252.711 204.380,252.613 204.004 C 252.515 203.628,252.434 203.936,252.434 204.688 M331.766 206.641 C 331.766 208.037,331.837 208.608,331.923 207.910 C 332.010 207.212,332.010 206.069,331.923 205.371 C 331.837 204.673,331.766 205.244,331.766 206.641 M68.894 224.406 C 68.762 224.751,68.763 225.143,68.897 225.277 C 69.031 225.411,69.153 225.184,69.168 224.772 C 69.194 224.057,69.210 224.058,69.531 224.805 C 69.805 225.442,69.872 225.464,69.894 224.925 C 69.932 224.019,69.191 223.634,68.894 224.406 M68.756 226.270 C 68.764 226.924,69.227 227.517,69.824 227.637 C 70.517 227.775,70.431 227.463,69.531 226.563 C 69.066 226.098,68.752 225.979,68.756 226.270 M290.564 226.270 C 290.233 226.538,289.123 229.219,288.098 232.227 C 276.161 267.232,245.815 292.770,210.352 297.652 C 206.517 298.180,205.469 298.768,205.469 300.391 C 205.469 302.859,206.851 303.118,213.867 301.962 C 240.148 297.636,266.156 280.553,281.089 257.810 C 286.969 248.855,294.141 232.559,294.141 228.154 C 294.141 226.300,291.948 225.145,290.564 226.270 M310.869 229.223 C 310.509 229.591,309.681 232.000,309.028 234.575 C 297.889 278.536,257.611 312.926,211.553 317.801 C 208.561 318.118,205.880 318.570,205.596 318.807 C 204.772 319.491,205.061 322.564,205.900 322.045 C 206.093 321.926,206.250 321.996,206.250 322.201 C 206.250 323.806,221.262 321.708,232.160 318.580 C 268.243 308.224,299.466 278.746,311.214 243.945 C 312.870 239.041,314.453 232.848,314.453 231.277 C 314.453 229.136,312.209 227.850,310.869 229.223 M197.766 256.538 C 198.793 256.618,200.375 256.617,201.281 256.535 C 202.188 256.454,201.348 256.387,199.414 256.389 C 197.480 256.390,196.739 256.457,197.766 256.538 M78.125 257.374 C 78.125 257.883,79.134 258.626,79.427 258.333 C 79.720 258.040,78.977 257.031,78.468 257.031 C 78.279 257.031,78.125 257.186,78.125 257.374 M91.183 280.490 C 91.183 281.432,91.542 281.459,92.224 280.566 C 92.512 280.190,92.594 280.013,92.406 280.172 C 92.218 280.332,91.866 280.297,91.624 280.096 C 91.322 279.846,91.183 279.971,91.183 280.490 M169.817 333.594 C 170.185 334.023,170.621 334.375,170.786 334.375 C 170.951 334.375,170.785 334.023,170.417 333.594 C 170.049 333.164,169.613 332.813,169.448 332.813 C 169.283 332.813,169.449 333.164,169.817 333.594 M200.684 336.604 C 201.167 336.697,201.958 336.697,202.441 336.604 C 202.925 336.511,202.529 336.435,201.563 336.435 C 200.596 336.435,200.200 336.511,200.684 336.604 " stroke="none" fill="#2d3f45" fill-rule="evenodd"></path><path id="path4" d="M191.309 73.713 C 191.792 73.806,192.583 73.806,193.066 73.713 C 193.550 73.620,193.154 73.544,192.188 73.544 C 191.221 73.544,190.825 73.620,191.309 73.713 M206.941 73.721 C 207.643 73.808,208.697 73.806,209.284 73.717 C 209.871 73.627,209.297 73.556,208.008 73.559 C 206.719 73.561,206.238 73.634,206.941 73.721 M185.645 74.097 C 186.021 74.196,186.636 74.196,187.012 74.097 C 187.388 73.999,187.080 73.919,186.328 73.919 C 185.576 73.919,185.269 73.999,185.645 74.097 M295.898 95.703 C 296.738 96.563,297.512 97.266,297.619 97.266 C 297.727 97.266,297.128 96.563,296.289 95.703 C 295.450 94.844,294.675 94.141,294.568 94.141 C 294.461 94.141,295.059 94.844,295.898 95.703 M298.047 97.388 C 298.047 97.455,298.618 98.026,299.316 98.657 L 300.586 99.805 299.439 98.535 C 298.369 97.352,298.047 97.086,298.047 97.388 M304.492 103.516 C 306.201 105.234,307.687 106.641,307.794 106.641 C 307.902 106.641,306.591 105.234,304.883 103.516 C 303.174 101.797,301.688 100.391,301.581 100.391 C 301.473 100.391,302.784 101.797,304.492 103.516 M231.064 103.655 C 230.951 104.008,230.777 104.561,230.676 104.883 C 230.576 105.205,230.643 105.469,230.826 105.469 C 231.009 105.469,231.252 104.985,231.365 104.395 C 231.596 103.192,231.380 102.662,231.064 103.655 M105.078 113.086 C 103.478 114.697,102.256 116.016,102.363 116.016 C 102.471 116.016,103.868 114.697,105.469 113.086 C 107.069 111.475,108.291 110.156,108.184 110.156 C 108.076 110.156,106.679 111.475,105.078 113.086 M272.656 125.781 C 271.852 126.039,271.817 126.100,272.461 126.127 C 272.891 126.145,273.506 125.990,273.828 125.781 C 274.513 125.339,274.037 125.339,272.656 125.781 M299.805 125.778 C 299.333 125.979,300.105 126.024,301.758 125.892 C 303.262 125.771,304.565 125.609,304.655 125.531 C 304.997 125.236,300.547 125.462,299.805 125.778 M305.273 125.710 C 305.488 125.933,306.191 126.228,306.836 126.364 C 307.645 126.535,307.827 126.498,307.422 126.244 C 306.472 125.647,304.819 125.236,305.273 125.710 M250.093 143.424 C 250.021 156.946,249.890 160.917,249.512 161.069 C 249.129 161.224,249.132 161.273,249.524 161.297 C 250.379 161.350,250.402 160.802,250.293 143.164 L 250.187 125.977 250.093 143.424 M279.688 126.507 C 279.688 126.908,280.871 127.463,281.144 127.189 C 281.239 127.094,280.950 126.820,280.502 126.580 C 280.054 126.340,279.688 126.307,279.688 126.507 M238.448 129.093 C 238.034 129.406,237.871 129.666,238.086 129.669 C 238.666 129.679,239.658 128.981,239.413 128.736 C 239.296 128.619,238.862 128.780,238.448 129.093 M312.109 130.646 C 312.109 131.153,313.063 132.813,313.354 132.813 C 313.540 132.813,313.419 132.285,313.086 131.641 C 312.545 130.595,312.109 130.151,312.109 130.646 M236.853 133.789 C 236.854 135.508,236.923 136.162,237.005 135.244 C 237.088 134.325,237.087 132.919,237.003 132.119 C 236.919 131.319,236.851 132.070,236.853 133.789 M292.842 133.292 C 291.847 136.549,291.288 139.074,291.513 139.300 C 291.627 139.414,291.918 138.572,292.159 137.429 C 292.399 136.287,292.874 134.505,293.213 133.471 C 293.552 132.436,293.749 131.510,293.651 131.411 C 293.552 131.313,293.189 132.159,292.842 133.292 M265.100 133.634 C 264.744 134.736,264.466 136.012,264.481 136.471 C 264.496 136.929,264.854 136.095,265.275 134.616 C 266.174 131.463,266.041 130.720,265.100 133.634 M285.589 133.008 C 285.577 133.626,286.526 137.047,286.780 137.301 C 287.103 137.623,286.511 134.775,286.010 133.594 C 285.783 133.057,285.593 132.793,285.589 133.008 M313.700 133.984 C 313.687 134.307,313.847 135.186,314.056 135.938 C 314.265 136.689,314.608 138.535,314.818 140.039 L 315.201 142.773 315.023 139.844 C 314.868 137.289,313.765 132.402,313.700 133.984 M243.547 148.042 C 243.554 160.267,243.600 161.126,244.246 161.185 C 244.719 161.229,244.752 161.191,244.349 161.065 C 243.843 160.908,243.745 159.059,243.649 147.922 L 243.538 134.961 243.547 148.042 M256.417 135.734 C 256.003 136.047,255.840 136.306,256.055 136.310 C 256.635 136.319,257.627 135.622,257.382 135.377 C 257.265 135.260,256.831 135.421,256.417 135.734 M223.528 138.672 C 223.528 139.424,223.609 139.731,223.707 139.355 C 223.805 138.979,223.805 138.364,223.707 137.988 C 223.609 137.612,223.528 137.920,223.528 138.672 M263.841 139.726 C 263.482 142.593,263.911 149.248,264.616 151.758 C 265.358 154.399,265.354 153.811,264.603 149.512 C 264.156 146.956,264.034 144.670,264.185 141.699 C 264.419 137.094,264.274 136.259,263.841 139.726 M286.811 138.867 C 286.811 139.512,286.945 140.566,287.109 141.211 L 287.408 142.383 287.408 141.211 C 287.408 140.566,287.273 139.512,287.109 138.867 L 286.811 137.695 286.811 138.867 M260.384 140.095 C 260.012 141.065,260.422 141.197,260.920 140.268 C 261.160 139.819,261.193 139.453,260.993 139.453 C 260.794 139.453,260.520 139.742,260.384 140.095 M291.598 145.703 C 291.674 148.947,291.942 151.342,292.397 152.840 C 293.315 155.859,293.579 155.424,292.732 152.289 C 292.362 150.923,291.931 147.783,291.772 145.313 L 291.485 140.820 291.598 145.703 M257.115 142.227 C 257.482 142.432,258.123 142.435,258.657 142.233 C 259.442 141.937,259.353 141.887,258.029 141.881 C 256.912 141.877,256.660 141.972,257.115 142.227 M330.696 143.750 C 330.986 144.838,331.171 145.131,331.413 144.889 C 331.503 144.799,331.320 144.286,331.006 143.749 L 330.436 142.773 330.696 143.750 M314.672 147.168 C 314.528 148.618,314.145 150.746,313.822 151.897 C 313.499 153.048,313.309 154.064,313.399 154.154 C 313.489 154.244,313.845 153.303,314.189 152.061 C 314.840 149.714,315.494 144.531,315.139 144.531 C 315.026 144.531,314.817 145.718,314.672 147.168 M286.639 149.296 C 286.280 151.294,285.878 153.369,285.745 153.906 C 285.550 154.696,285.608 154.659,286.045 153.711 C 286.652 152.397,287.678 146.823,287.443 146.118 C 287.359 145.867,286.997 147.297,286.639 149.296 M221.575 147.656 C 221.575 148.408,221.655 148.716,221.754 148.340 C 221.852 147.964,221.852 147.349,221.754 146.973 C 221.655 146.597,221.575 146.904,221.575 147.656 M257.064 154.045 C 257.497 154.416,259.782 154.640,259.567 154.291 C 259.436 154.079,258.783 153.906,258.115 153.906 C 257.447 153.906,256.974 153.969,257.064 154.045 M254.759 156.444 C 254.461 157.099,254.437 157.740,254.687 158.397 C 255.205 159.760,255.273 159.647,255.273 157.422 C 255.273 156.348,255.258 155.469,255.238 155.469 C 255.219 155.469,255.004 155.908,254.759 156.444 M261.028 157.422 C 261.028 158.174,261.109 158.481,261.207 158.105 C 261.305 157.729,261.305 157.114,261.207 156.738 C 261.109 156.362,261.028 156.670,261.028 157.422 M297.797 160.297 C 299.203 161.448,303.443 162.004,305.469 161.303 C 306.164 161.062,305.884 161.021,304.492 161.160 C 302.768 161.332,300.447 160.921,297.852 159.984 C 297.098 159.712,297.096 159.723,297.797 160.297 M257.116 160.788 C 257.565 161.028,258.259 161.138,258.659 161.034 C 260.016 160.679,259.698 160.352,257.996 160.352 C 256.522 160.352,256.408 160.408,257.116 160.788 M277.734 161.141 C 276.768 161.412,275.186 161.568,274.219 161.487 L 272.461 161.340 274.023 161.740 C 275.565 162.134,278.637 161.707,280.078 160.899 C 280.937 160.418,279.955 160.519,277.734 161.141 M332.129 186.207 C 332.505 186.305,333.120 186.305,333.496 186.207 C 333.872 186.109,333.564 186.028,332.813 186.028 C 332.061 186.028,331.753 186.109,332.129 186.207 M326.855 186.611 C 327.554 186.697,328.696 186.697,329.395 186.611 C 330.093 186.524,329.521 186.453,328.125 186.453 C 326.729 186.453,326.157 186.524,326.855 186.611 M322.363 186.988 C 322.739 187.086,323.354 187.086,323.730 186.988 C 324.106 186.890,323.799 186.809,323.047 186.809 C 322.295 186.809,321.987 186.890,322.363 186.988 M299.121 188.564 C 299.819 188.650,300.962 188.650,301.660 188.564 C 302.358 188.477,301.787 188.406,300.391 188.406 C 298.994 188.406,298.423 188.477,299.121 188.564 M292.876 188.948 C 293.362 189.042,294.065 189.038,294.438 188.940 C 294.812 188.842,294.414 188.766,293.555 188.770 C 292.695 188.775,292.390 188.855,292.876 188.948 M287.407 189.339 C 287.893 189.432,288.596 189.429,288.969 189.331 C 289.343 189.233,288.945 189.157,288.086 189.161 C 287.227 189.165,286.921 189.245,287.407 189.339 M281.934 189.729 C 282.417 189.822,283.208 189.822,283.691 189.729 C 284.175 189.636,283.779 189.560,282.813 189.560 C 281.846 189.560,281.450 189.636,281.934 189.729 M276.081 190.127 C 276.783 190.214,277.838 190.212,278.425 190.123 C 279.012 190.034,278.438 189.963,277.148 189.965 C 275.859 189.967,275.379 190.040,276.081 190.127 M270.806 190.515 C 271.400 190.604,272.279 190.602,272.759 190.509 C 273.240 190.417,272.754 190.343,271.680 190.346 C 270.605 190.349,270.212 190.425,270.806 190.515 M265.332 190.905 C 265.923 190.994,266.890 190.994,267.480 190.905 C 268.071 190.815,267.588 190.742,266.406 190.742 C 265.225 190.742,264.741 190.815,265.332 190.905 M259.277 191.298 C 259.976 191.385,261.118 191.385,261.816 191.298 C 262.515 191.212,261.943 191.141,260.547 191.141 C 259.150 191.141,258.579 191.212,259.277 191.298 M68.458 192.773 C 68.462 193.633,68.542 193.938,68.636 193.452 C 68.729 192.967,68.726 192.263,68.628 191.890 C 68.530 191.517,68.454 191.914,68.458 192.773 M254.206 191.689 C 254.908 191.776,255.963 191.774,256.550 191.685 C 257.137 191.596,256.563 191.525,255.273 191.527 C 253.984 191.529,253.504 191.602,254.206 191.689 M248.350 192.083 C 249.269 192.166,250.675 192.165,251.475 192.081 C 252.275 191.997,251.523 191.929,249.805 191.931 C 248.086 191.932,247.431 192.001,248.350 192.083 M243.266 192.464 C 243.752 192.557,244.455 192.554,244.829 192.456 C 245.202 192.358,244.805 192.282,243.945 192.286 C 243.086 192.290,242.780 192.370,243.266 192.464 M237.598 192.847 C 237.974 192.946,238.589 192.946,238.965 192.847 C 239.341 192.749,239.033 192.669,238.281 192.669 C 237.529 192.669,237.222 192.749,237.598 192.847 M331.739 195.508 C 331.743 196.367,331.823 196.673,331.917 196.187 C 332.010 195.701,332.007 194.998,331.909 194.624 C 331.811 194.251,331.735 194.648,331.739 195.508 M68.107 200.586 C 68.106 202.520,68.172 203.360,68.254 202.453 C 68.336 201.547,68.337 199.965,68.256 198.938 C 68.176 197.911,68.109 198.652,68.107 200.586 M68.100 207.031 C 68.100 208.643,68.169 209.302,68.253 208.496 C 68.338 207.690,68.338 206.372,68.253 205.566 C 68.169 204.761,68.100 205.420,68.100 207.031 M331.758 210.938 C 331.758 212.119,331.831 212.603,331.920 212.012 C 332.010 211.421,332.010 210.454,331.920 209.863 C 331.831 209.272,331.758 209.756,331.758 210.938 M68.471 215.820 C 68.474 216.895,68.550 217.288,68.640 216.694 C 68.729 216.100,68.727 215.221,68.634 214.741 C 68.542 214.260,68.468 214.746,68.471 215.820 M103.906 294.727 C 105.073 295.908,106.116 296.875,106.223 296.875 C 106.331 296.875,105.464 295.908,104.297 294.727 C 103.130 293.545,102.087 292.578,101.980 292.578 C 101.872 292.578,102.739 293.545,103.906 294.727 M292.557 298.340 L 291.211 299.805 292.676 298.459 C 293.481 297.718,294.141 297.059,294.141 296.994 C 294.141 296.695,293.810 296.976,292.557 298.340 M110.140 300.879 C 111.759 302.604,112.109 302.914,112.109 302.620 C 112.109 302.558,111.274 301.723,110.254 300.765 L 108.398 299.023 110.140 300.879 M187.207 336.207 C 187.583 336.305,188.198 336.305,188.574 336.207 C 188.950 336.109,188.643 336.028,187.891 336.028 C 187.139 336.028,186.831 336.109,187.207 336.207 M211.816 336.207 C 212.192 336.305,212.808 336.305,213.184 336.207 C 213.560 336.109,213.252 336.028,212.500 336.028 C 211.748 336.028,211.440 336.109,211.816 336.207 M193.277 336.618 C 194.628 336.694,196.738 336.694,197.965 336.616 C 199.191 336.539,198.086 336.476,195.508 336.477 C 192.930 336.478,191.926 336.541,193.277 336.618 M204.600 336.615 C 205.519 336.697,206.925 336.696,207.725 336.612 C 208.525 336.528,207.773 336.461,206.055 336.462 C 204.336 336.463,203.681 336.532,204.600 336.615 " stroke="none" fill="#505054" fill-rule="evenodd"></path><path id="path5" d="M239.800 72.070 C 238.532 72.759,238.196 73.626,236.920 79.492 C 236.359 82.070,235.385 86.465,234.754 89.258 C 234.124 92.051,233.153 96.445,232.597 99.023 C 232.041 101.602,231.167 105.645,230.654 108.008 C 229.374 113.910,227.452 123.845,226.952 127.148 C 226.724 128.652,226.214 130.938,225.817 132.227 C 224.768 135.641,223.146 141.969,222.514 145.117 C 222.212 146.621,220.978 152.334,219.772 157.813 C 217.003 170.386,217.006 170.221,219.573 171.481 C 225.699 174.489,232.339 181.730,235.959 189.349 L 237.542 192.682 240.744 192.432 C 242.505 192.295,246.406 192.013,249.414 191.807 C 260.564 191.042,266.813 190.608,275.000 190.032 C 279.619 189.707,289.902 189.003,297.852 188.468 C 336.968 185.835,337.322 185.801,338.073 184.620 C 338.864 183.377,339.021 178.794,338.417 174.609 C 338.122 172.568,337.692 169.600,337.461 168.014 C 336.321 160.189,332.935 149.086,329.704 142.578 C 328.477 140.107,326.739 136.240,325.842 133.984 C 324.945 131.729,323.642 128.974,322.945 127.863 C 313.413 112.652,312.268 111.313,295.935 96.289 C 284.510 85.780,262.009 74.891,245.922 72.085 C 241.756 71.359,241.112 71.357,239.800 72.070 M250.195 143.164 L 250.195 161.133 246.875 161.133 L 243.555 161.133 243.452 147.559 C 243.334 131.949,243.649 132.924,239.506 135.352 C 238.223 136.104,237.071 136.719,236.946 136.719 C 236.821 136.719,236.719 135.311,236.719 133.590 C 236.719 130.025,236.438 130.425,241.211 127.195 L 244.336 125.079 247.266 125.137 L 250.195 125.195 250.195 143.164 M279.010 126.006 C 290.069 129.774,290.764 156.237,279.929 160.979 C 270.272 165.206,263.078 156.650,263.799 141.797 C 264.405 129.322,270.419 123.079,279.010 126.006 M307.617 126.310 C 318.994 131.619,317.731 157.741,305.931 161.189 C 297.309 163.708,291.877 157.509,291.506 144.727 C 291.074 129.866,298.079 121.858,307.617 126.310 M300.818 132.647 C 297.649 135.313,297.351 150.926,300.410 153.986 C 305.338 158.913,309.698 149.716,307.891 138.207 C 306.986 132.440,303.924 130.033,300.818 132.647 M272.883 133.011 C 270.063 136.054,270.047 151.332,272.861 154.146 C 273.963 155.249,276.667 155.431,278.006 154.493 C 281.331 152.163,281.266 134.839,277.923 132.649 C 276.427 131.669,273.963 131.846,272.883 133.011 M260.000 136.484 C 262.711 139.195,259.946 143.701,256.625 141.984 C 254.129 140.693,253.801 137.925,255.932 136.132 C 257.488 134.822,258.418 134.903,260.000 136.484 M191.211 153.340 C 169.618 157.343,153.126 173.278,148.780 194.336 C 147.820 198.986,147.917 210.603,148.948 214.453 C 149.700 217.264,149.732 216.583,149.029 212.695 C 142.867 178.587,172.994 148.441,207.975 153.713 C 212.344 154.372,213.430 154.247,209.688 153.516 C 205.812 152.759,194.905 152.656,191.211 153.340 M259.903 154.648 C 261.951 156.412,261.921 158.401,259.819 160.304 C 257.466 162.432,253.426 159.068,254.903 156.211 C 256.104 153.888,258.244 153.219,259.903 154.648 M211.274 175.758 C 211.781 176.201,212.382 176.563,212.608 176.563 C 213.089 176.563,213.066 176.543,211.523 175.640 L 210.352 174.954 211.274 175.758 M217.383 178.718 C 217.813 179.068,218.516 179.527,218.945 179.738 L 219.727 180.121 218.945 179.485 C 218.516 179.135,217.813 178.676,217.383 178.465 L 216.602 178.082 217.383 178.718 M223.867 184.264 C 224.820 185.292,226.003 186.660,226.497 187.305 C 226.991 187.949,227.246 188.172,227.064 187.799 C 226.533 186.710,223.293 182.881,222.688 182.628 C 222.384 182.501,222.914 183.237,223.867 184.264 M228.651 191.309 C 229.376 192.759,230.270 194.866,230.639 195.991 C 231.266 197.906,232.731 199.611,233.744 199.608 C 233.984 199.607,233.627 199.270,232.952 198.858 C 232.056 198.311,231.540 197.546,231.042 196.027 C 230.320 193.824,227.859 188.672,227.529 188.672 C 227.422 188.672,227.927 189.858,228.651 191.309 M199.121 189.729 C 199.604 189.822,200.396 189.822,200.879 189.729 C 201.362 189.636,200.967 189.560,200.000 189.560 C 199.033 189.560,198.638 189.636,199.121 189.729 M194.193 190.827 C 190.880 192.369,186.719 196.303,186.719 197.893 C 186.719 198.053,187.316 197.344,188.046 196.317 C 190.200 193.288,193.414 191.060,196.771 190.269 C 197.873 190.009,197.997 189.913,197.266 189.887 C 196.729 189.867,195.346 190.290,194.193 190.827 M206.874 191.774 C 211.523 194.441,214.150 199.007,214.192 204.492 C 214.211 206.964,214.281 207.331,214.527 206.250 C 215.190 203.338,213.904 198.407,211.701 195.411 C 210.555 193.853,206.247 190.621,205.327 190.629 C 205.083 190.631,205.779 191.146,206.874 191.774 M197.800 198.081 C 197.127 198.276,195.960 199.119,195.205 199.954 C 189.627 206.129,198.651 214.708,204.535 208.824 C 209.315 204.045,204.380 196.174,197.800 198.081 M185.983 199.648 C 185.743 200.335,185.559 201.179,185.573 201.523 C 185.587 201.867,185.843 201.364,186.142 200.406 C 186.767 198.400,186.636 197.775,185.983 199.648 M244.434 199.501 C 245.132 199.588,246.274 199.588,246.973 199.501 C 247.671 199.415,247.100 199.344,245.703 199.344 C 244.307 199.344,243.735 199.415,244.434 199.501 M235.352 199.981 C 235.996 200.126,238.018 200.128,239.844 199.988 L 243.164 199.732 238.672 199.725 C 236.201 199.722,234.707 199.837,235.352 199.981 M251.320 204.297 C 251.320 206.768,251.383 207.778,251.461 206.543 C 251.538 205.308,251.538 203.286,251.461 202.051 C 251.383 200.815,251.320 201.826,251.320 204.297 M185.350 205.017 C 185.602 209.607,188.481 214.706,191.851 216.532 L 193.164 217.243 191.992 216.353 C 188.360 213.595,186.147 209.715,185.562 205.078 L 185.193 202.148 185.350 205.017 M213.366 209.247 C 212.735 211.351,210.072 214.981,208.401 216.014 C 206.707 217.061,206.576 217.496,208.247 216.526 C 210.567 215.179,214.441 209.533,213.984 208.163 C 213.899 207.908,213.621 208.396,213.366 209.247 M250.844 210.095 C 250.257 222.342,242.019 236.604,230.664 245.029 C 227.230 247.577,226.529 248.192,228.320 247.088 C 240.463 239.599,252.352 220.206,251.059 209.996 L 250.906 208.789 250.844 210.095 M149.633 216.992 C 149.572 218.219,152.626 226.411,153.003 226.033 C 153.102 225.935,152.898 225.304,152.551 224.633 C 152.204 223.961,151.410 221.880,150.786 220.007 C 150.163 218.134,149.644 216.777,149.633 216.992 M194.922 218.040 C 197.009 219.065,202.006 219.262,204.421 218.414 C 206.547 217.668,206.040 217.544,203.528 218.196 C 200.295 219.035,198.383 218.882,193.945 217.433 C 193.516 217.292,193.955 217.566,194.922 218.040 M153.125 226.737 C 153.125 227.212,156.234 232.163,158.089 234.644 C 164.814 243.636,177.243 252.128,185.938 253.673 C 186.689 253.807,185.777 253.395,183.910 252.759 C 171.457 248.516,159.722 238.822,154.444 228.418 C 153.621 226.796,153.125 226.164,153.125 226.737 M221.651 250.324 C 219.916 251.112,217.983 251.971,217.354 252.231 C 216.430 252.614,216.398 252.662,217.188 252.481 C 218.460 252.190,224.305 249.657,224.785 249.190 C 225.316 248.672,225.150 248.732,221.651 250.324 M211.719 253.776 C 209.893 254.288,209.111 254.618,209.981 254.509 C 211.609 254.307,216.674 252.799,215.625 252.829 C 215.303 252.839,213.545 253.265,211.719 253.776 M188.281 254.297 C 188.818 254.469,189.609 254.610,190.039 254.610 C 190.658 254.610,190.617 254.545,189.844 254.297 C 189.307 254.125,188.516 253.984,188.086 253.984 C 187.467 253.984,187.508 254.049,188.281 254.297 M191.704 254.964 C 192.190 255.057,192.893 255.054,193.266 254.956 C 193.640 254.858,193.242 254.782,192.383 254.786 C 191.523 254.790,191.218 254.870,191.704 254.964 M205.762 254.963 C 206.245 255.056,207.036 255.056,207.520 254.963 C 208.003 254.870,207.607 254.794,206.641 254.794 C 205.674 254.794,205.278 254.870,205.762 254.963 M196.565 255.367 C 198.006 255.442,200.467 255.443,202.034 255.369 C 203.601 255.294,202.422 255.233,199.414 255.232 C 196.406 255.232,195.124 255.292,196.565 255.367 " stroke="none" fill="#ffffff" fill-rule="evenodd"></path></g></svg>