<svg width="400" height="400" viewBox="0 0 400 400" fill="none" xmlns="http://www.w3.org/2000/svg">
  <!-- Music note with extract/cut line -->

  <!-- Dotted cut line going through the music note -->
  <ellipse cx="200" cy="80" rx="8" ry="16" fill="#2c3e50"/>
  <ellipse cx="200" cy="120" rx="8" ry="16" fill="#2c3e50"/>
  <ellipse cx="200" cy="160" rx="8" ry="16" fill="#2c3e50"/>
  <ellipse cx="200" cy="200" rx="8" ry="16" fill="#2c3e50"/>
  <ellipse cx="200" cy="240" rx="8" ry="16" fill="#2c3e50"/>
  <ellipse cx="200" cy="280" rx="8" ry="16" fill="#2c3e50"/>
  <ellipse cx="200" cy="320" rx="8" ry="16" fill="#2c3e50"/>

  <!-- Left music note stem -->
  <rect x="150" y="140" width="80" height="20" rx="10" fill="#2c3e50"/>
  <rect x="150" y="140" width="20" height="120" rx="10" fill="#2c3e50"/>

  <!-- Right music note stem -->
  <rect x="230" y="120" width="120" height="20" rx="10" fill="#2c3e50"/>
  <rect x="330" y="120" width="20" height="140" rx="10" fill="#2c3e50"/>

  <!-- Left music note head -->
  <ellipse cx="120" cy="280" rx="35" ry="25" fill="#2c3e50"/>

  <!-- Right music note head -->
  <ellipse cx="380" cy="280" rx="35" ry="25" fill="#2c3e50"/>

  <!-- Cut effect lines around the dotted line -->
  <path d="M 180 190 L 190 200" stroke="#2c3e50" stroke-width="4" stroke-linecap="round"/>
  <path d="M 210 200 L 220 190" stroke="#2c3e50" stroke-width="4" stroke-linecap="round"/>
  <path d="M 175 220 L 185 230" stroke="#2c3e50" stroke-width="4" stroke-linecap="round"/>
  <path d="M 215 230 L 225 220" stroke="#2c3e50" stroke-width="4" stroke-linecap="round"/>
</svg>
