<svg width="400" height="400" viewBox="0 0 400 400" fill="none" xmlns="http://www.w3.org/2000/svg">
  <!-- Waveform background -->
  <rect x="50" y="180" width="300" height="40" rx="20" fill="#e0e0e0"/>
  
  <!-- Waveform peaks -->
  <rect x="60" y="160" width="8" height="80" rx="4" fill="#2c3e50"/>
  <rect x="80" y="140" width="8" height="120" rx="4" fill="#2c3e50"/>
  <rect x="100" y="170" width="8" height="60" rx="4" fill="#2c3e50"/>
  <rect x="120" y="150" width="8" height="100" rx="4" fill="#2c3e50"/>
  <rect x="140" y="165" width="8" height="70" rx="4" fill="#2c3e50"/>
  <rect x="160" y="145" width="8" height="110" rx="4" fill="#2c3e50"/>
  <rect x="180" y="175" width="8" height="50" rx="4" fill="#2c3e50"/>
  <rect x="200" y="155" width="8" height="90" rx="4" fill="#2c3e50"/>
  <rect x="220" y="170" width="8" height="60" rx="4" fill="#2c3e50"/>
  <rect x="240" y="155" width="8" height="90" rx="4" fill="#2c3e50"/>
  <rect x="260" y="165" width="8" height="70" rx="4" fill="#2c3e50"/>
  <rect x="280" y="145" width="8" height="110" rx="4" fill="#2c3e50"/>
  <rect x="300" y="160" width="8" height="80" rx="4" fill="#2c3e50"/>
  <rect x="320" y="175" width="8" height="50" rx="4" fill="#2c3e50"/>
  <rect x="340" y="150" width="8" height="100" rx="4" fill="#2c3e50"/>
  
  <!-- Selection brackets -->
  <!-- Left bracket -->
  <path d="M 140 120 L 120 120 L 120 280 L 140 280" stroke="#ff6b35" stroke-width="6" fill="none" stroke-linecap="round"/>
  
  <!-- Right bracket -->
  <path d="M 260 120 L 280 120 L 280 280 L 260 280" stroke="#ff6b35" stroke-width="6" fill="none" stroke-linecap="round"/>
  
  <!-- Selection highlight -->
  <rect x="120" y="120" width="160" height="160" fill="rgba(255, 107, 53, 0.2)" rx="8"/>
  
  <!-- Extract arrow -->
  <path d="M 200 300 L 200 340" stroke="#ff6b35" stroke-width="4" stroke-linecap="round"/>
  <path d="M 190 330 L 200 340 L 210 330" stroke="#ff6b35" stroke-width="4" fill="none" stroke-linecap="round"/>
</svg>
