<svg width="400" height="400" viewBox="0 0 400 400" fill="none" xmlns="http://www.w3.org/2000/svg">
  <!-- Waveform background -->
  <rect x="50" y="180" width="300" height="40" rx="20" fill="#e0e0e0"/>
  
  <!-- Waveform peaks -->
  <rect x="60" y="160" width="8" height="80" rx="4" fill="#2c3e50"/>
  <rect x="80" y="140" width="8" height="120" rx="4" fill="#2c3e50"/>
  <rect x="100" y="170" width="8" height="60" rx="4" fill="#2c3e50"/>
  <rect x="120" y="150" width="8" height="100" rx="4" fill="#2c3e50"/>
  <rect x="140" y="165" width="8" height="70" rx="4" fill="#2c3e50"/>
  <rect x="160" y="145" width="8" height="110" rx="4" fill="#2c3e50"/>
  <rect x="180" y="175" width="8" height="50" rx="4" fill="#2c3e50"/>
  
  <!-- Cut line -->
  <line x1="200" y1="120" x2="200" y2="280" stroke="#ff4444" stroke-width="4" stroke-dasharray="8,4"/>
  
  <!-- More waveform peaks after cut -->
  <rect x="220" y="170" width="8" height="60" rx="4" fill="#2c3e50"/>
  <rect x="240" y="155" width="8" height="90" rx="4" fill="#2c3e50"/>
  <rect x="260" y="165" width="8" height="70" rx="4" fill="#2c3e50"/>
  <rect x="280" y="145" width="8" height="110" rx="4" fill="#2c3e50"/>
  <rect x="300" y="160" width="8" height="80" rx="4" fill="#2c3e50"/>
  <rect x="320" y="175" width="8" height="50" rx="4" fill="#2c3e50"/>
  <rect x="340" y="150" width="8" height="100" rx="4" fill="#2c3e50"/>
  
  <!-- Scissors -->
  <!-- Left blade -->
  <ellipse cx="180" cy="100" rx="15" ry="8" fill="#2c3e50" transform="rotate(-30 180 100)"/>
  <rect x="175" y="85" width="4" height="25" rx="2" fill="#2c3e50" transform="rotate(-30 180 100)"/>
  
  <!-- Right blade -->
  <ellipse cx="220" cy="100" rx="15" ry="8" fill="#2c3e50" transform="rotate(30 220 100)"/>
  <rect x="218" y="85" width="4" height="25" rx="2" fill="#2c3e50" transform="rotate(30 220 100)"/>
  
  <!-- Scissors pivot -->
  <circle cx="200" cy="95" r="6" fill="#666"/>
  <circle cx="200" cy="95" r="3" fill="#999"/>
</svg>
